<svg
    fill="#000000"
    xmlns="http://www.w3.org/2000/svg"
    viewBox="0 0 16 16"
    width="32px"
    height="32px"
>
    <path
        d="M 4.5 2 C 3.671875 2 3 2.671875 3 3.5 L 3 12.5 C 3 13.328125 3.671875 14 4.5 14 L 9.585938 14 L 8.585938 13 L 4.5 13 C 4.222656 13 4 12.773438 4 12.5 L 4 3.5 C 4 3.226563 4.222656 3 4.5 3 L 9 3 L 9 6 L 12 6 L 12 9 L 13 9 L 13 5.292969 L 9.707031 2 Z M 10 3.707031 L 11.292969 5 L 10 5 Z M 6 8 L 6 9 L 10 9 L 10 8 Z M 6 10 L 6 11 L 9 11 L 9 10 Z M 12 10 L 12 13 L 10 13 L 12.5 15.5 L 15 13 L 13 13 L 13 10 Z"
    />
</svg>
