<svg
    fill="#000000"
    xmlns="http://www.w3.org/2000/svg"
    viewBox="0 0 16 16"
    width="32px"
    height="32px"
>
    <path
        d="M 3 1 L 3 2 L 2.5 2 C 1.675781 2 1 2.675781 1 3.5 L 1 8 L 2 8 L 2 6 L 13 6 L 13 12.5 C 13 12.78125 12.78125 13 12.5 13 L 2.5 13 C 2.21875 13 2 12.78125 2 12.5 L 2 11 L 1 11 L 1 12.5 C 1 13.324219 1.675781 14 2.5 14 L 12.5 14 C 13.324219 14 14 13.324219 14 12.5 L 14 3.5 C 14 2.675781 13.324219 2 12.5 2 L 12 2 L 12 1 L 11 1 L 11 2 L 4 2 L 4 1 Z M 2.5 3 L 3 3 L 3 4 L 4 4 L 4 3 L 11 3 L 11 4 L 12 4 L 12 3 L 12.5 3 C 12.78125 3 13 3.21875 13 3.5 L 13 5 L 2 5 L 2 3.5 C 2 3.21875 2.21875 3 2.5 3 Z M 4 7 L 4 9 L 1 9 L 1 10 L 4 10 L 4 12 L 6.5 9.5 Z"
    />
</svg>
